<svg width="16" height="16" viewBox="0 0 16 16" xmlns="http://www.w3.org/2000/svg">
    <g fill-rule="evenodd">
        <path fill="#3AA1F2" d="M14,16 L2,16 C0.8,16 0,15.1 0,14 L0,2 C0,0.8 0.8,0 2,0 L14,0 C15.1,0 16,0.8 16,2 L16,14 C16,15.1 15.1,16 14,16"></path>
        <path fill="#FFFFFE" d="M6.1,12.0 C9.9,12.0 11.9,8.9 11.9,6.2 C11.9,6.1 11.9,6.0 11.9,5.9 C12.3,5.6 12.7,5.3 13,4.8 C12.6,5.0 12.2,5.1 11.8,5.2 C12.2,4.9 12.5,4.5 12.7,4.0 C12.3,4.3 11.8,4.4 11.4,4.5 C11.0,4.1 10.5,3.9 9.9,3.9 C8.7,3.9 7.8,4.8 7.8,5.9 C7.8,6.1 7.8,6.3 7.9,6.4 C6.2,6.3 4.7,5.5 3.6,4.3 C3.5,4.6 3.4,4.9 3.4,5.3 C3.4,6.0 3.7,6.6 4.3,7.0 C3.9,7.0 3.6,6.9 3.4,6.7 C3.4,6.8 3.4,6.8 3.4,6.8 C3.4,7.8 4.1,8.6 5.0,8.8 C4.8,8.8 4.6,8.9 4.5,8.9 C4.3,8.9 4.2,8.8 4.1,8.8 C4.3,9.6 5.1,10.2 6.0,10.2 C5.3,10.8 4.4,11.1 3.4,11.1 C3.3,11.1 3.1,11.1 3,11.1 C3.9,11.7 4.9,12.0 6.1,12.0"></path>
    </g>
</svg>